<svg xmlns="http://www.w3.org/2000/svg" version="1.1" xmlns:xlink="http://www.w3.org/1999/xlink" xmlns:svgjs="http://svgjs.dev/svgjs"   preserveAspectRatio="none" viewBox="0 0 1440 560">
    <g mask="url(&quot;#SvgjsMask1008&quot;)" fill="none">
        <path d="M112 0C129.97 3.42 126.27 26.67 140 26.67C153.19 26.67 148.67 3.27 165.85 0C218.67 -10.06 222.93 0 280 0C335.38 0 369.78 -30.81 390.75 0C417.42 39.19 401.31 77.24 375.28 140C345.93 210.76 329.41 205.26 280 267.04C273.43 275.26 263.33 274.15 263.33 280C263.33 285.29 273.06 282.81 280 289.33C347.61 352.81 349.86 352.33 412.43 420C419.86 428.03 416.22 440.74 420 440.74C423.78 440.74 426.73 430.94 427.57 420C432.93 350.57 417.06 347.15 432.41 280C449.06 207.15 486.52 211.54 491.56 140C496.38 71.54 432.48 40.19 452.13 0C466.7 -29.81 506.07 0 560 0C630 0 630 0 700 0C752.71 0 782.38 -30.07 805.43 0C836.04 39.93 794.8 74.06 807.33 140C812.09 165.06 822.13 182 840 182C860.4 182 878.66 167.49 883.88 140C895.94 76.49 847.13 39.97 874.57 0C895.19 -30.03 927.29 0 980 0C1050 0 1050 0 1120 0C1190 0 1190 0 1260 0C1330 0 1330 0 1400 0C1470 0 1505 -35 1540 0C1575 35 1540 70 1540 140C1540 210 1540 210 1540 280C1540 350 1540 350 1540 420C1540 490 1569.68 519.68 1540 560C1518.15 589.68 1479.93 576.33 1436.94 560C1409.93 549.73 1421.56 506.8 1400 506.8C1373.53 506.8 1375.59 546.81 1340.89 560C1305.59 573.41 1300.45 560 1260 560C1190 560 1190 560 1120 560C1060.43 560 1058.75 565.63 1000.85 560C988.75 558.82 990.3 546.39 980 546.39C970.26 546.39 972.2 558.89 960.78 560C902.2 565.69 900.39 560 840 560C770 560 770 560 700 560C630 560 630 560 560 560C490 560 490 560 420 560C362.5 560 361.82 563.79 305 560C291.82 559.12 291.45 550.67 280 550.67C274.41 550.67 277.24 559.58 270.91 560C207.24 564.24 205.46 560 140 560C70 560 35 595 0 560C-35 525 0 490 0 420C0 350 0 350 0 280C0 210 0 210 0 140C0 70 -31.11 38.89 0 0C24.89 -31.11 59.97 -9.91 112 0" stroke="rgba(51, 121, 194, 0.58)" stroke-width="2"></path>
        <path d="M700 270.54C695.04 270.54 692.23 273.67 690.91 280C676.67 348.4 666.39 350.78 668.89 420C670.94 476.78 669.71 532 700 532C741.27 532 808.89 480.5 812 420C815.37 354.5 764.17 348.34 712.96 280C708.17 273.61 706.07 270.54 700 270.54" stroke="rgba(51, 121, 194, 0.58)" stroke-width="2"></path>
        <path d="M980 237.58C961.21 237.58 939.42 260.07 939.42 280C939.42 297.75 960.89 312.94 980 312.94C996.4 312.94 1010.43 297.41 1010.43 280C1010.43 259.73 996.71 237.58 980 237.58" stroke="rgba(51, 121, 194, 0.58)" stroke-width="2"></path>
        <path d="M1260 251.28C1244.57 251.28 1234.55 264.42 1234.55 280C1234.55 300.32 1243.12 323.08 1260 323.08C1283.84 323.08 1316 298.99 1316 280C1316 263.09 1285.3 251.28 1260 251.28" stroke="rgba(51, 121, 194, 0.58)" stroke-width="2"></path>
        <path d="M53.67 0C101.94 28.35 97.66 82.22 140 82.22C180.67 82.22 173.84 26.93 219.69 0C243.84 -14.18 249.85 0 280 0C309.25 0 331.65 -20.58 338.51 0C354.98 49.42 345.5 74.92 326.67 140C316.25 176.03 307.9 175.59 280 202.22C234.56 245.59 180 244.88 180 280C180 311.77 234.7 301.75 280 336C327.27 371.75 365.14 378 365.14 420C365.14 462 322.24 461.67 280 504C252.39 531.67 258.89 546.62 225.45 560C188.89 574.62 182.73 560 140 560C89.38 560 69.17 587.36 38.77 560C-0.83 524.36 17.52 497.28 0 434C-1.86 427.28 0 427 0 420C0 350 0 350 0 280C0 210 0 210 0 140C0 70 -19.4 50.6 0 0C7.44 -19.4 31.94 -12.76 53.67 0" stroke="rgba(51, 121, 194, 0.58)" stroke-width="2"></path>
        <path d="M560 123.2C534 61.95 509.51 44.66 509.51 0C509.51 -16.94 534.76 0 560 0C630 0 630 0 700 0C731.11 0 751.7 -21.52 762.22 0C785.92 48.48 786.03 76.9 768.44 140C754.92 188.52 735.54 182.79 700 223.24C674.04 252.79 658 244.73 645.45 280C623 343.11 627.32 350.39 630 420C632.72 490.39 677.14 518.23 656.25 560C642.14 588.23 608.13 560 560 560C493.05 560 446.29 593.22 426.09 560C403.72 523.22 461.84 492 474.86 420C487.15 352 456.56 344.29 476.71 280C499.13 208.49 517.25 213.29 560 148.4C563.37 143.29 568.94 144.94 568.94 140C568.94 132.34 563.72 131.95 560 123.2" stroke="rgba(51, 121, 194, 0.58)" stroke-width="2"></path>
        <path d="M936.12 140C914.56 76.05 902.55 48.59 917.78 0C924.49 -21.41 948.89 0 980 0C1025 0 1052.02 -27.39 1070 0C1097.96 42.61 1053.93 80.2 1071.88 140C1078.93 163.47 1097.19 166.55 1120 166.55C1137.29 166.55 1139.89 156.68 1152.08 140C1200.76 73.41 1193.12 63.07 1241.74 0C1247.08 -6.93 1250.87 0 1260 0C1330 0 1330 0 1400 0C1470 0 1505 -35 1540 0C1575 35 1540 70 1540 140C1540 210 1540 210 1540 280C1540 331.34 1564.76 348.63 1540 382.67C1513.85 418.63 1488.73 400.45 1438.18 420C1418.73 427.52 1416.16 423.87 1400 436.8C1328.63 493.87 1331.95 499.42 1263.11 560C1261.95 561.02 1261.55 560 1260 560C1190 560 1190 560 1120 560C1097.66 560 1095.05 568.77 1075.32 560C1025.05 537.66 1027.07 497.78 980 497.78C935.49 497.78 939.31 539.04 892.16 560C869.31 570.15 866.08 560 840 560C805.89 560 771.79 574.13 771.79 560C771.79 540.02 809.57 528.87 840 491.79C867.01 458.87 856.68 449.49 886.67 420C926.68 380.66 937.04 391.29 980 354.12C1017.95 321.29 1048.48 319.18 1048.48 280C1048.48 234.39 1016.66 230.23 980 184.55C960.48 160.23 945.67 168.32 936.12 140" stroke="rgba(51, 121, 194, 0.58)" stroke-width="2"></path>
        <path d="M777.78 280C777.78 252.41 810.34 232 840 232C865.8 232 888.7 253.25 888.7 280C888.7 315.43 866.57 356.36 840 356.36C811.11 356.36 777.78 314.59 777.78 280" stroke="rgba(51, 121, 194, 0.58)" stroke-width="2"></path>
        <path d="M1260 206.41C1220.39 207.14 1194.77 240.07 1194.77 280C1194.77 332.06 1215.38 386.03 1260 390.38C1317.99 396.03 1336.19 349.21 1400 300C1407.75 294.02 1403.11 289.57 1403.11 280C1403.11 277.68 1402.17 277.34 1400 276.22C1330.62 240.54 1323.01 205.25 1260 206.41" stroke="rgba(51, 121, 194, 0.58)" stroke-width="2"></path>
        <path d="M140 353.04C92.36 353.04 21.54 395.29 21.54 420C21.54 442.04 84.5 446.55 140 446.55C157.48 446.55 167.5 436.16 167.5 420C167.5 389.4 165.34 353.04 140 353.04" stroke="rgba(51, 121, 194, 0.58)" stroke-width="2"></path>
        <path d="M1485.56 560C1485.56 530.72 1525.31 470.91 1540 470.91C1552.53 470.91 1556.9 532.35 1540 560C1529.68 576.9 1485.56 575.27 1485.56 560" stroke="rgba(51, 121, 194, 0.58)" stroke-width="2"></path>
        <path d="M122.5 140C122.5 137.15 131.2 137.78 140 137.78C174.95 137.78 210 136.96 210 140C210 143.07 174.05 150 140 150C130.3 150 122.5 143.26 122.5 140" stroke="rgba(51, 121, 194, 0.58)" stroke-width="2"></path>
        <path d="M280 105C276.82 105 273.54 49.46 273.54 0C273.54 -3.04 276.77 0 280 0C283.13 0 286.27 -2.95 286.27 0C286.27 49.55 283.18 105 280 105" stroke="rgba(51, 121, 194, 0.58)" stroke-width="2"></path>
        <path d="M643.4 140C605.4 79.22 573.68 40.37 590 0C601.98 -29.63 645 0 700 0C709.51 0 717.25 -8.35 719.01 0C732.03 61.65 736.7 73.93 729.56 140C727.19 161.9 717.65 175.95 700 175.95C674.57 175.95 660.4 167.2 643.4 140" stroke="rgba(51, 121, 194, 0.58)" stroke-width="2"></path>
        <path d="M980 102.67C968.48 102.67 960.99 43.43 960.99 0C960.99 -7.91 970.49 0 980 0C993.75 0 1007.5 -10.55 1007.5 0C1007.5 40.78 991.73 102.67 980 102.67" stroke="rgba(51, 121, 194, 0.58)" stroke-width="2"></path>
        <path d="M1225 140C1225 118.87 1241.29 114.37 1260 90.59C1296.35 44.37 1290 29.2 1335.12 0C1360 -16.1 1367.56 0 1400 0C1470 0 1505 -35 1540 0C1575 35 1540 70 1540 140C1540 210 1540 210 1540 280C1540 302.16 1551.08 324.33 1540 324.33C1521.53 324.33 1506.59 306.2 1480.89 280C1436.59 234.84 1452.33 209.69 1400 181.62C1341.89 150.46 1327.8 177.66 1260 161.54C1240.3 156.85 1225 154.34 1225 140" stroke="rgba(51, 121, 194, 0.58)" stroke-width="2"></path>
        <path d="M521.01 280C527.49 245.48 540.33 218.4 560 218.4C579.82 218.4 594.65 245.36 600 280C610.21 346.16 590.72 350.03 591.11 420C591.5 490.03 613.56 505.99 601.56 560C598.01 575.99 580.78 560 560 560C531.09 560 507.66 580.32 502.17 560C488.74 510.32 517.43 490.35 522.16 420C526.85 350.35 508.57 346.28 521.01 280" stroke="rgba(51, 121, 194, 0.58)" stroke-width="2"></path>
        <path d="M1086.52 280C1086.52 251.86 1102.99 226.9 1120 226.9C1137.23 226.9 1155 251.74 1155 280C1155 321.07 1137.17 365.56 1120 365.56C1102.93 365.56 1086.52 321.19 1086.52 280" stroke="rgba(51, 121, 194, 0.58)" stroke-width="2"></path>
        <path d="M230 420C230 401.34 256.28 382.67 280 382.67C300.2 382.67 317.84 401.34 317.84 420C317.84 438.66 300.2 457.33 280 457.33C256.28 457.33 230 438.66 230 420" stroke="rgba(51, 121, 194, 0.58)" stroke-width="2"></path>
        <path d="M945 420C945 406.94 960.72 395.29 980 395.29C1014.43 395.29 1052.41 406.67 1052.41 420C1052.41 433.61 1013.91 449.17 980 449.17C960.21 449.17 945 433.88 945 420" stroke="rgba(51, 121, 194, 0.58)" stroke-width="2"></path>
        <path d="M92.62 560C92.62 544.06 117.41 506.9 140 506.9C161.1 506.9 180 543.42 180 560C180 569.97 160 560 140 560C116.31 560 92.62 570.61 92.62 560" stroke="rgba(51, 121, 194, 0.58)" stroke-width="2"></path>
        <path d="M1534.17 560C1534.17 556.86 1538.43 550.45 1540 550.45C1541.34 550.45 1541.81 557.04 1540 560C1538.9 561.81 1534.17 561.64 1534.17 560" stroke="rgba(51, 121, 194, 0.58)" stroke-width="2"></path>
    </g>
    <defs>
        <mask id="SvgjsMask1008">
            <rect width="1440" height="560" fill="#ffffff"></rect>
        </mask>
    </defs>
</svg>